<svg width="150" height="150" viewBox="0 0 1024 1024" fill="none" xmlns="http://www.w3.org/2000/svg">
<path d="M13 1H25C28.3137 1 31 3.68629 31 7V25C31 28.3137 28.3137 31 25 31H13" stroke="black" stroke-width="2"/>
<path d="M24.4925 18.491V14.121C24.4925 13.8527 24.5002 13.5652 24.5155 13.2585C24.5385 12.9442 24.5692 12.6183 24.6075 12.281L20.18 18.491H24.4925ZM29.3225 18.491V20.492C29.3225 20.6683 29.2612 20.8217 29.1385 20.952C29.0235 21.0823 28.8548 21.1475 28.6325 21.1475H27.5975V25H24.4925V21.1475H17.7535C17.5312 21.1475 17.328 21.0785 17.144 20.9405C16.9677 20.8025 16.8565 20.63 16.8105 20.423L16.4425 18.6635L24.1935 8.2445H27.5975V18.491H29.3225Z" fill="black"/>
<path fill-rule="evenodd" clip-rule="evenodd" d="M6 0C2.68629 0 0 2.68629 0 6V26C0 29.3137 2.68629 32 6 32H16V0H6ZM9.6705 22.1595C9.35617 22.2975 9.015 22.3665 8.647 22.3665C8.21767 22.3665 7.84583 22.3052 7.5315 22.1825C7.21717 22.0522 6.9565 21.8682 6.7495 21.6305C6.5425 21.3928 6.38917 21.1092 6.2895 20.7795C6.18983 20.4498 6.14 20.078 6.14 19.664C6.14 19.25 6.20133 18.8782 6.324 18.5485C6.44667 18.2188 6.61533 17.9352 6.83 17.6975C7.05233 17.4598 7.313 17.2797 7.612 17.157C7.911 17.0267 8.24067 16.9615 8.601 16.9615C8.99967 16.9615 9.36 17.0228 9.682 17.1455C10.0117 17.2682 10.2915 17.4445 10.5215 17.6745C10.7515 17.9045 10.9278 18.1882 11.0505 18.5255C11.1808 18.8628 11.246 19.2462 11.246 19.6755C11.246 20.0588 11.177 20.4153 11.039 20.745C10.9087 21.067 10.7285 21.3507 10.4985 21.596C10.2685 21.8337 9.9925 22.0215 9.6705 22.1595ZM9.866 14.3855C9.20667 14.3855 8.60867 14.4852 8.072 14.6845L8.509 14.1785L13.477 8.2445H10.303C9.87367 8.2445 9.49033 8.325 9.153 8.486C8.82333 8.647 8.57033 8.83867 8.394 9.061L4.622 14.1555C3.34933 15.8575 2.713 17.5327 2.713 19.181C2.713 20.0627 2.84717 20.8715 3.1155 21.6075C3.3915 22.3435 3.78633 22.976 4.3 23.505C4.82133 24.034 5.45383 24.448 6.1975 24.747C6.94117 25.0383 7.78067 25.184 8.716 25.184C9.62833 25.184 10.4602 25.0307 11.2115 24.724C11.9628 24.4173 12.603 24.0033 13.132 23.482C13.6687 22.953 14.0827 22.3397 14.374 21.642C14.6653 20.9367 14.811 20.193 14.811 19.411C14.811 18.5523 14.6653 17.8087 14.374 17.18C14.0903 16.5437 13.7147 16.0185 13.247 15.6045C12.7793 15.1905 12.2503 14.8838 11.66 14.6845C11.0697 14.4852 10.4717 14.3855 9.866 14.3855Z" fill="black"/>
</svg>
