<svg width="150" height="150" viewBox="0 0 150 150" fill="none" xmlns="http://www.w3.org/2000/svg">
<g clip-path="url(#clip0)">
<rect width="150" height="150" rx="11" fill="white"/>
<path d="M60.9375 4.6875H117.188C132.721 4.6875 145.312 17.2795 145.312 32.8125V117.188C145.312 132.721 132.721 145.312 117.188 145.312H60.9375" stroke="black" stroke-width="9.5"/>
<path d="M114.809 86.6766V66.1922C114.809 64.9344 114.845 63.5867 114.916 62.1492C115.024 60.6758 115.168 59.1484 115.348 57.5672L94.5938 86.6766H114.809ZM137.449 86.6766V96.0562C137.449 96.8828 137.162 97.6016 136.587 98.2125C136.048 98.8234 135.257 99.1289 134.215 99.1289H129.363V117.187H114.809V99.1289H83.2196C82.1774 99.1289 81.225 98.8055 80.3625 98.1586C79.536 97.5117 79.0149 96.7031 78.7992 95.7328L77.0742 87.4852L113.407 38.6461H129.363V86.6766H137.449Z" fill="black"/>
<path fill-rule="evenodd" clip-rule="evenodd" d="M30 0C13.4315 0 0 13.4315 0 30V120C0 136.569 13.4315 150 30 150H75V0H30ZM45.3305 103.873C43.857 104.52 42.2578 104.843 40.5328 104.843C38.5203 104.843 36.7773 104.555 35.3039 103.98C33.8305 103.37 32.6086 102.507 31.6383 101.393C30.668 100.279 29.9492 98.9492 29.482 97.4039C29.0148 95.8586 28.7812 94.1156 28.7812 92.175C28.7812 90.2344 29.0687 88.4914 29.6437 86.9461C30.2187 85.4008 31.0094 84.0711 32.0156 82.957C33.0578 81.843 34.2797 80.9984 35.6812 80.4234C37.0828 79.8125 38.6281 79.507 40.3172 79.507C42.1859 79.507 43.875 79.7945 45.3844 80.3695C46.9297 80.9445 48.2414 81.7711 49.3195 82.8492C50.3977 83.9274 51.2242 85.257 51.7992 86.8383C52.4102 88.4195 52.7156 90.2164 52.7156 92.2289C52.7156 94.0258 52.3922 95.6969 51.7453 97.2422C51.1344 98.7516 50.2898 100.081 49.2117 101.231C48.1336 102.345 46.8398 103.226 45.3305 103.873ZM46.2469 67.432C43.1562 67.432 40.3531 67.8992 37.8375 68.8336L39.8859 66.4617L63.1734 38.6461H48.2953C46.2828 38.6461 44.4859 39.0234 42.9047 39.7781C41.3594 40.5328 40.1734 41.4312 39.3469 42.4734L21.6656 66.3539C15.7 74.332 12.7172 82.1844 12.7172 89.9109C12.7172 94.0438 13.3461 97.8352 14.6039 101.285C15.8977 104.735 17.7484 107.7 20.1562 110.18C22.6 112.659 25.5648 114.6 29.0508 116.002C32.5367 117.367 36.4719 118.05 40.8562 118.05C45.1328 118.05 49.032 117.331 52.5539 115.894C56.0758 114.456 59.0766 112.516 61.5562 110.072C64.0719 107.592 66.0125 104.717 67.3781 101.447C68.7438 98.1406 69.4266 94.6547 69.4266 90.9891C69.4266 86.9641 68.7438 83.4781 67.3781 80.5313C66.0484 77.5484 64.2875 75.0867 62.0953 73.1461C59.9031 71.2055 57.4234 69.768 54.6562 68.8336C51.8891 67.8992 49.0859 67.432 46.2469 67.432Z" fill="black"/>
</g>
<defs>
<clipPath id="clip0">
<rect width="150" height="150" fill="white"/>
</clipPath>
</defs>
</svg>
